# xmcd
#
# Track frame offsets:
#	150
#	16880
#	32513
#	49603
#	63973
#	83498
#	97398
#	109183
#	125225
#	142183
#	155338
#	178715
#	192023
#	211423
#	227968
#	243448
#	259570
#	276590
#	293895
#	309545
#	326408
#	341078
#
# Disc length: 4721
#
# Revision: 1
# Processed by: cddbd v1.5.1PL0 Copyright (c) Steve Scherf et al.
# Submitted via: audiograbber 1.83.01
# Normalized: r0:DSETVAR1
#
DISCID=48126f16
DTITLE=Various Artist - Дискотека Арлекина 48. (2000)
DYEAR=1900
DGENRE=
TTITLE0=Dj Aligator Project. - Lollypop. (Radio Mix)
TTITLE1=Passion Fruit. - Hot Tongue Twister. (Vamanos)
TTITLE2=Jump and Joy. - Wamoz Everybody. (Rmx)
TTITLE3=Bomfunk MC's - B-Boys and Flygirls. (Radio Mix)
TTITLE4=Blumchen. - Detektive.
TTITLE5=Dj Valium. - Omen.
TTITLE6=Porn Kings. - Shake Ya Shimmy. (Radio Mix)
TTITLE7=ATC. - Around The World.
TTITLE8=Lady Violet. - Beautiful World.
TTITLE9=Dj Mendez. - Fiesta. (Radio Mix)
TTITLE10=Justine. - You're My Sunshine. (Extended Version)
TTITLE11=T-Spoon feat. Dj FC. - F.O.O.T.B.A.L.L.
TTITLE12=Scooter. - Sex Dwarf.
TTITLE13=ATB. - The Summer.
TTITLE14=Alice Deejay. - Will I Ever.
TTITLE15=Aroma. - Hand In Hand. (Radio Edit)
TTITLE16=Trinity. - Into The Blue.
TTITLE17=Sash! - Show Me The Right Way.
TTITLE18=Gigi D'Agoustino. - Another Way. (Radio Cut)
TTITLE19=Amber. - Sexual. (La Da Di) (Thunderpuss 2000 Edit)
TTITLE20=Sals 8 feat. K. Bizzare. - Downtown.
TTITLE21=Bomfunk MC's - Freestyler. (Radio Cut)
EXTD=
EXTT0=
EXTT1=
EXTT2=
EXTT3=
EXTT4=
EXTT5=
EXTT6=
EXTT7=
EXTT8=
EXTT9=
EXTT10=
EXTT11=
EXTT12=
EXTT13=
EXTT14=
EXTT15=
EXTT16=
EXTT17=
EXTT18=
EXTT19=
EXTT20=
EXTT21=
PLAYORDER=
